<svg width="69" height="20" viewBox="0 0 69 20" xmlns="http://www.w3.org/2000/svg">
<g id="logo">
<g id="Group 113">
<g id="igens">
<path d="M27.4142 14.9845V5.02289H29.5968V14.9845H27.4142Z"/>
<path d="M36.4499 15.1104C35.3866 15.1104 34.4679 14.9052 33.6937 14.4948C32.9289 14.0844 32.3366 13.4968 31.9169 12.7319C31.5065 11.9671 31.3013 11.053 31.3013 9.98968C31.3013 8.94502 31.5065 8.04028 31.9169 7.27544C32.3366 6.5106 32.9242 5.92298 33.6797 5.51257C34.4352 5.10217 35.326 4.89697 36.352 4.89697C37.0609 4.89697 37.7278 4.99491 38.3527 5.19078C38.9776 5.38666 39.4906 5.66181 39.8917 6.01625L39.1922 7.58324C38.7165 7.24745 38.2594 7.00494 37.8211 6.85571C37.392 6.70647 36.921 6.63185 36.408 6.63185C35.4473 6.63185 34.7244 6.91167 34.2394 7.47131C33.7637 8.03095 33.5258 8.87041 33.5258 9.98968C33.5258 11.1369 33.773 11.9997 34.2674 12.578C34.771 13.147 35.5312 13.4315 36.5479 13.4315C36.9023 13.4315 37.2568 13.4035 37.6112 13.3475C37.975 13.2822 38.3247 13.189 38.6605 13.0677L38.1848 13.7812V11.011H36.2261V9.48601H40.1575V14.3689C39.8311 14.5274 39.4627 14.6627 39.0523 14.7746C38.6512 14.8865 38.2268 14.9705 37.7791 15.0264C37.3407 15.0824 36.8977 15.1104 36.4499 15.1104Z" fill="black"/>
<path d="M42.02 14.9845V5.02289H48.8895V6.7158H44.1606V9.06628H48.5957V10.7732H44.1606V13.2916H48.8895V14.9845H42.02Z"/>
<path d="M50.3954 14.9845V5.02289H52.0044L57.3769 11.8785L56.9712 12.1443V5.02289H59.0279V14.9845H57.4049L52.0604 8.15687L52.4381 7.86306V14.9845H50.3954Z"/>
<path d="M64.509 15.1104C64.0054 15.1104 63.511 15.0684 63.026 14.9845C62.5503 14.8912 62.1026 14.7606 61.6829 14.5927C61.2631 14.4155 60.8994 14.2056 60.5916 13.9631L61.3051 12.3961C61.7995 12.7412 62.3125 12.9977 62.8441 13.1656C63.3758 13.3335 63.9354 13.4175 64.523 13.4175C65.1573 13.4175 65.6423 13.3149 65.9781 13.1097C66.3232 12.9045 66.4958 12.62 66.4958 12.2562C66.4958 12.0417 66.4258 11.8598 66.2859 11.7106C66.146 11.5613 65.9221 11.4308 65.6143 11.3188C65.3065 11.2069 64.8961 11.095 64.3831 10.983C63.7395 10.8525 63.1892 10.6986 62.7322 10.5213C62.2752 10.3441 61.9021 10.1389 61.6129 9.90574C61.3331 9.67255 61.1279 9.40206 60.9973 9.09426C60.8667 8.77713 60.8014 8.41337 60.8014 8.00297C60.8014 7.41535 60.9647 6.88835 61.2911 6.42199C61.6269 5.94629 62.0886 5.5732 62.6762 5.30271C63.2732 5.03222 63.9681 4.89697 64.7609 4.89697C65.2366 4.89697 65.6983 4.94361 66.146 5.03688C66.603 5.13016 67.0228 5.26074 67.4052 5.42863C67.7876 5.59652 68.1094 5.80172 68.3705 6.04423L67.671 7.61122C67.2233 7.26611 66.7569 7.00961 66.2719 6.84172C65.7869 6.67382 65.2925 6.58988 64.7889 6.58988C64.2199 6.58988 63.7675 6.70647 63.4317 6.93965C63.096 7.16351 62.9281 7.47131 62.9281 7.86306C62.9281 8.07758 62.9934 8.25947 63.1239 8.4087C63.2545 8.55794 63.469 8.69319 63.7675 8.81444C64.0753 8.92637 64.495 9.04296 65.0267 9.16422C65.6516 9.2948 66.1926 9.4487 66.6497 9.62592C67.1067 9.80314 67.4798 10.0083 67.7689 10.2415C68.0674 10.4654 68.2866 10.7312 68.4265 11.039C68.5664 11.3375 68.6364 11.6826 68.6364 12.0743C68.6364 12.6993 68.4731 13.2403 68.1467 13.6973C67.8202 14.145 67.3492 14.4948 66.7336 14.7466C66.118 14.9891 65.3765 15.1104 64.509 15.1104Z" />
</g>
<path id="D" d="M6.35767 19.9231V0H13.3531C15.4984 0 17.3266 0.391746 18.8376 1.17524C20.3486 1.94008 21.4959 3.06868 22.2794 4.56105C23.0815 6.03477 23.4826 7.82561 23.4826 9.93358C23.4826 12.0602 23.0815 13.8697 22.2794 15.3621C21.4772 16.8358 20.3206 17.9644 18.8096 18.7479C17.2986 19.5314 15.4798 19.9231 13.3531 19.9231H6.35767ZM9.2398 17.5167H13.1573C15.601 17.5167 17.4385 16.8824 18.6697 15.6139C19.9009 14.3454 20.5165 12.452 20.5165 9.93358C20.5165 4.91549 18.0634 2.40644 13.1573 2.40644H9.2398V17.5167Z"/>
<path id="A" d="M19.4251 17.1353C19.4251 18.4821 18.0384 19.3826 16.8081 18.8349L-3.78039e-07 11.3515L-4.8179e-07 8.97792L16.833 1.48346C18.0516 0.940902 19.425 1.83283 19.425 3.16677L2.12802 10.5603L2.12802 9.68726L19.4251 17.1353Z" fill="white"/>
</g>
</g>
</svg>
